<?xml version="1.0" encoding="UTF-8" standalone="no"?>
<!-- Created with Inkscape (http://www.inkscape.org/) -->

<svg
   version="1.1"
   id="svg1"
   width="19.016384"
   height="25"
   viewBox="0 0 19.016384 25"
   sodipodi:docname="logo3.svg"
   inkscape:version="1.3.2 (091e20e, 2023-11-25, custom)"
   inkscape:export-filename="logo4.png"
   inkscape:export-xdpi="1500"
   inkscape:export-ydpi="1500"
   xmlns:inkscape="http://www.inkscape.org/namespaces/inkscape"
   xmlns:sodipodi="http://sodipodi.sourceforge.net/DTD/sodipodi-0.dtd"
   xmlns="http://www.w3.org/2000/svg"
   xmlns:svg="http://www.w3.org/2000/svg">
  <defs
     id="defs1">
    <inkscape:path-effect
       effect="fillet_chamfer"
       id="path-effect10"
       is_visible="true"
       lpeversion="1"
       nodesatellites_param="F,0,0,1,0,0,0,1 @ F,0,0,1,0,0,0,1 @ F,0,0,1,0,0,0,1 @ F,0,0,1,0,0,0,1 @ F,0,0,1,0,0,0,1 @ F,0,0,1,0,0,0,1 @ F,0,0,1,0,0,0,1 @ F,0,0,1,0,0,0,1 @ F,0,0,1,0,0,0,1 @ F,0,0,1,0,0,0,1 @ F,0,0,1,0,0,0,1 @ F,0,0,1,0,0,0,1 @ F,0,0,1,0,0,0,1 @ F,0,0,1,0,0,0,1 @ F,0,0,1,0,0,0,1 @ F,0,0,1,0,0,0,1 @ F,0,0,1,0,0,0,1 @ F,0,0,1,0,0,0,1 @ F,0,0,1,0,0,0,1 @ F,0,0,1,0,0,0,1 @ F,0,0,1,0,0,0,1 @ F,0,0,1,0,0,0,1 @ F,0,0,1,0,0,0,1 @ F,0,0,1,0,0,0,1 @ F,0,0,1,0,0,0,1 @ F,0,0,1,0,0,0,1 @ F,0,0,1,0,0,0,1 @ F,0,0,1,0,0,0,1 @ F,0,0,1,0,0,0,1 @ F,0,0,1,0,0,0,1 @ F,0,0,1,0,0,0,1 @ F,0,0,1,0,0,0,1 @ F,0,0,1,0,0,0,1 @ F,0,0,1,0,0,0,1 @ F,0,0,1,0,0,0,1 @ F,0,0,1,0,0,0,1 @ F,0,0,1,0,0,0,1 @ F,0,0,1,0,0,0,1 @ F,0,0,1,0,0,0,1 @ F,0,0,1,0,0,0,1 @ F,0,0,1,0,0,0,1 @ F,0,0,1,0,0,0,1 @ F,0,0,1,0,0,0,1 @ F,0,0,1,0,0,0,1 @ F,0,0,1,0,0,0,1 @ F,0,0,1,0,0,0,1 @ F,0,0,1,0,0,0,1 @ F,0,0,1,0,0,0,1 @ F,0,0,1,0,0,0,1 @ F,0,0,1,0,0,0,1 @ F,0,0,1,0,0,0,1 @ F,0,0,1,0,0,0,1 @ F,0,0,1,0,0,0,1 @ F,0,0,1,0,0,0,1 @ F,0,0,1,0,0,0,1 @ F,0,0,1,0,0,0,1 @ F,0,0,1,0,0,0,1 @ F,0,0,1,0,0,0,1 @ F,0,0,1,0,0,0,1 @ F,0,0,1,0,0,0,1 @ F,0,0,1,0,0,0,1 @ F,0,0,1,0,0,0,1 @ F,0,0,1,0,0,0,1 @ F,0,0,1,0,0,0,1 @ F,0,0,1,0,0,0,1 @ F,0,0,1,0,0,0,1 @ F,0,0,1,0,0,0,1 @ F,0,0,1,0,0,0,1 @ F,0,0,1,0,0,0,1 @ F,0,0,1,0,0,0,1 @ F,0,0,1,0,0,0,1 @ F,0,0,1,0,0,0,1"
       radius="0"
       unit="px"
       method="auto"
       mode="F"
       chamfer_steps="1"
       flexible="false"
       use_knot_distance="true"
       apply_no_radius="true"
       apply_with_radius="true"
       only_selected="false"
       hide_knots="false" />
    <inkscape:path-effect
       effect="fillet_chamfer"
       id="path-effect9"
       is_visible="true"
       lpeversion="1"
       nodesatellites_param="F,0,0,1,0,0,0,1 @ F,0,0,1,0,0,0,1 @ F,0,0,1,0,0,0,1 @ F,0,0,1,0,0,0,1 @ F,0,0,1,0,0,0,1 @ F,0,0,1,0,0,0,1 @ F,0,0,1,0,0,0,1 @ F,0,0,1,0,0,0,1 @ F,0,0,1,0,0,0,1 @ F,0,0,1,0,0,0,1 @ F,0,0,1,0,0,0,1 @ F,0,0,1,0,0,0,1 @ F,0,0,1,0,0,0,1 @ F,0,0,1,0,0,0,1 @ F,0,0,1,0,0,0,1 @ F,0,0,1,0,0,0,1 @ F,0,0,1,0,0,0,1 @ F,0,0,1,0,0,0,1 @ F,0,0,1,0,0,0,1 @ F,0,0,1,0,0,0,1 @ F,0,0,1,0,0,0,1 @ F,0,0,1,0,0,0,1 @ F,0,0,1,0,0,0,1 @ F,0,0,1,0,0,0,1 @ F,0,0,1,0,0,0,1 @ F,0,0,1,0,0,0,1 @ F,0,0,1,0,0,0,1 @ F,0,0,1,0,0,0,1 @ F,0,0,1,0,0,0,1 @ F,0,0,1,0,0,0,1 @ F,0,0,1,0,0,0,1 @ F,0,0,1,0,0,0,1 @ F,0,0,1,0,0,0,1 @ F,0,0,1,0,0,0,1 @ F,0,0,1,0,0,0,1 @ F,0,0,1,0,0,0,1 @ F,0,0,1,0,0,0,1 @ F,0,0,1,0,0,0,1 @ F,0,0,1,0,0,0,1 @ F,0,0,1,0,0,0,1 @ F,0,0,1,0,0,0,1 @ F,0,0,1,0,0,0,1 @ F,0,0,1,0,0,0,1 @ F,0,0,1,0,0,0,1 @ F,0,0,1,0,0,0,1 @ F,0,0,1,0,0,0,1 @ F,0,0,1,0,0,0,1 @ F,0,0,1,0,0,0,1 @ F,0,0,1,0,0,0,1 @ F,0,0,1,0,0,0,1 @ F,0,0,1,0,0,0,1 @ F,0,0,1,0,0,0,1 @ F,0,0,1,0,0,0,1 @ F,0,0,1,0,0,0,1 @ F,0,0,1,0,0,0,1 @ F,0,0,1,0,0,0,1 @ F,0,0,1,0,0,0,1 @ F,0,0,1,0,0,0,1 @ F,0,0,1,0,0,0,1 @ F,0,0,1,0,0,0,1 @ F,0,0,1,0,0,0,1 @ F,0,0,1,0,0,0,1 @ F,0,0,1,0,0,0,1 @ F,0,0,1,0,0,0,1 @ F,0,0,1,0,0,0,1 @ F,0,0,1,0,0,0,1 @ F,0,0,1,0,0,0,1 @ F,0,0,1,0,0,0,1 @ F,0,0,1,0,0,0,1 @ F,0,0,1,0,0,0,1 @ F,0,0,1,0,0,0,1 @ F,0,0,1,0,0,0,1 @ F,0,0,1,0,0,0,1 @ F,0,0,1,0,0,0,1 @ F,0,0,1,0,0,0,1"
       radius="0"
       unit="px"
       method="auto"
       mode="F"
       chamfer_steps="1"
       flexible="false"
       use_knot_distance="true"
       apply_no_radius="true"
       apply_with_radius="true"
       only_selected="false"
       hide_knots="false" />
  </defs>
  <sodipodi:namedview
     id="namedview1"
     pagecolor="#ffffff"
     bordercolor="#000000"
     borderopacity="0.25"
     inkscape:showpageshadow="2"
     inkscape:pageopacity="0.0"
     inkscape:pagecheckerboard="0"
     inkscape:deskcolor="#d1d1d1"
     showguides="false"
     inkscape:zoom="22.627417"
     inkscape:cx="-1.6793786"
     inkscape:cy="12.838407"
     inkscape:window-width="1920"
     inkscape:window-height="991"
     inkscape:window-x="-9"
     inkscape:window-y="-9"
     inkscape:window-maximized="1"
     inkscape:current-layer="g3" />
  <g
     inkscape:groupmode="layer"
     inkscape:label="Image"
     id="g1"
     transform="translate(-1.1955818,-0.48858734)">
    <g
       id="g8"
       transform="matrix(1.8426317,0,0,1.8426317,-39.297264,-16.055669)">
      <g
         id="g2"
         transform="translate(-2.7842329,-1.0606602)">
        <g
           id="g3">
          <g
             id="g4"
             transform="matrix(0.9413815,0,0,0.9413815,2.8052394,0.5884865)">
            <path
               style="fill:#6b6d6f"
               d="m 30.697853,10.555195 c -0.03571,0.06355 -0.06391,0.122816 -0.09036,0.186694 -0.02442,0.05898 -0.04471,0.119698 -0.06284,0.180905 -0.01715,0.05787 -0.03167,0.116597 -0.04334,0.175818 -0.01112,0.05642 -0.02,0.113393 -0.02537,0.17065 -0.0068,0.0728 -0.0095,0.14608 -0.0087,0.2192 6.13e-4,0.0574 0.0033,0.114933 0.0105,0.17188 0.01332,0.105447 0.03259,0.210498 0.06035,0.313092 0.01953,0.07217 0.04619,0.142359 0.07441,0.211595 0.02444,0.05997 0.05064,0.119479 0.08203,0.176126 0.04792,0.08648 0.09992,0.167895 0.161601,0.24872 0.0512,0.06709 0.114703,0.137343 0.15758,0.182604 2.18e-4,0.02561 4.55e-4,0.04738 2.52e-4,0.06451 -0.03772,0.03681 -0.05997,0.05808 -0.08933,0.08774 -0.0093,0.0094 -0.01845,0.01888 -0.02746,0.02853 -1.518024,1.626311 -1.651415,1.761882 -3.176678,3.381883 -0.0338,0.0359 -0.06326,0.07589 -0.09076,0.116824 -0.0278,0.04137 -0.05204,0.08513 -0.07465,0.129544 -0.02237,0.04396 -0.0429,0.08899 -0.06017,0.135191 -0.01791,0.0479 -0.03258,0.09706 -0.04486,0.146703 -0.01346,0.05438 -0.02418,0.109542 -0.03147,0.165085 -0.0077,0.05836 -0.0116,0.117262 -0.01282,0.176107 -0.0013,0.06495 -8.29e-4,0.130197 0.0061,0.194788 0.0073,0.0685 0.02223,0.136076 0.03746,0.203267 0.006,0.02641 0.0131,0.05259 0.02118,0.07843 0.01399,0.04475 0.02954,0.08906 0.04719,0.1325 0.0132,0.03248 0.0275,0.06459 0.04382,0.09562 0.02311,0.04393 0.04868,0.08665 0.07641,0.127822 0.03121,0.04634 0.06469,0.09129 0.101001,0.133758 0.41525,0.485635 1.331793,1.378691 1.331793,1.378691 l 1.331793,1.378692 -9.1e-5,0.121682 c -1.34e-4,0.177318 -0.02771,3.364596 -0.0292,3.365993 -0.0032,0.003 -0.115116,-0.01135 -0.171823,-0.0223 -0.12036,-0.02325 -0.239912,-0.05277 -0.356092,-0.09188 -0.08364,-0.02815 -0.164864,-0.06362 -0.244171,-0.102331 -0.06484,-0.03165 -0.128322,-0.06651 -0.188765,-0.105901 -0.0745,-0.04856 -0.145793,-0.102342 -0.213355,-0.160164 -0.117455,-0.100521 -0.222807,-0.2144 -0.332381,-0.323458 -0.23773,-0.23661 -0.48695,-0.491234 -0.705166,-0.717802 -0.151397,-0.157191 -1.233089,-1.280672 -2.403758,-2.496622 0,0 -1.487437,-1.413627 -2.128491,-2.21082 -0.03211,-0.03994 -0.05892,-0.08397 -0.08529,-0.12791 -0.02507,-0.04177 -0.04784,-0.08496 -0.06918,-0.128759 -0.01925,-0.03952 -0.03756,-0.0796 -0.053,-0.120751 -0.01773,-0.04727 -0.03254,-0.09567 -0.04537,-0.144496 -0.01454,-0.0553 -0.02727,-0.11122 -0.03574,-0.167765 -0.0106,-0.07067 -0.01749,-0.142107 -0.01879,-0.213556 -0.0013,-0.07064 0.003,-0.141454 0.0109,-0.211659 0.0077,-0.0686 0.0198,-0.136803 0.03549,-0.204028 0.01294,-0.05544 0.02877,-0.110346 0.04823,-0.16385 0.02052,-0.05641 0.04437,-0.111781 0.07203,-0.165059 0.02222,-0.04281 0.04818,-0.08368 0.07517,-0.123661 0.02581,-0.03825 0.05292,-0.07578 0.0828,-0.110941 0.154436,-0.181733 0.496829,-0.514838 0.496829,-0.514838 0.273257,-0.28316 1.107816,-1.148648 1.854578,-1.923305 0.746761,-0.774658 1.714367,-1.778331 2.150236,-2.230386 0,0 0.522114,-0.554074 0.79249,-0.821918 0.07246,-0.07178 0.144385,-0.144422 0.222251,-0.210294 0.06215,-0.05258 0.127089,-0.102136 0.194936,-0.147127 0.08111,-0.05379 0.166056,-0.101951 0.252726,-0.146234 0.07597,-0.03882 0.154087,-0.07369 0.233685,-0.104402 0.08762,-0.0338 0.177014,-0.06352 0.267787,-0.08762 0.101835,-0.02704 0.207484,-0.04756 0.309608,-0.0637 0.0985,-0.01557 0.175141,-0.02011 0.263055,-0.02604 0.05336,-0.0036 0.106878,-0.0046 0.160349,-0.0058 0.04804,-0.0011 0.08697,1.36e-4 0.144145,-0.0012 -0.0012,0.01578 -7.3e-5,0.02442 -6e-6,0.03663 1.38e-4,0.02521 0.0013,0.06148 8.41e-4,0.07564 -0.05629,0.0588 -0.07488,0.08121 -0.108518,0.124927 -0.09463,0.122996 -0.133162,0.182092 -0.18361,0.278701 l -3e-6,8e-6 z"
               id="path3"
               sodipodi:nodetypes="saaaaaaaaasccassaaaaaaaaaaaaaccssaaaaaassaaaaaaaaaaaaasssaaaaaasaacacssss"
               inkscape:original-d="m 30.697853,10.555195 c -0.03571,0.06355 -0.06391,0.122816 -0.09036,0.186694 -0.02442,0.05898 -0.04471,0.119698 -0.06284,0.180905 -0.01715,0.05787 -0.03167,0.116597 -0.04334,0.175818 -0.01112,0.05642 -0.02,0.113393 -0.02537,0.17065 -0.0068,0.0728 -0.0095,0.14608 -0.0087,0.2192 6.13e-4,0.0574 0.0033,0.114933 0.0105,0.17188 0.01332,0.105447 0.03259,0.210498 0.06035,0.313092 0.01953,0.07217 0.04619,0.142359 0.07441,0.211595 0.02444,0.05997 0.05064,0.119479 0.08203,0.176126 0.04792,0.08648 0.09992,0.167895 0.161601,0.24872 0.0512,0.06709 0.114703,0.137343 0.15758,0.182604 2.18e-4,0.02561 4.55e-4,0.04738 2.52e-4,0.06451 -0.03772,0.03681 -0.05997,0.05808 -0.08933,0.08774 -0.0093,0.0094 -0.01845,0.01888 -0.02746,0.02853 -1.518024,1.626311 -1.651415,1.761882 -3.176678,3.381883 -0.0338,0.0359 -0.06326,0.07589 -0.09076,0.116824 -0.0278,0.04137 -0.05204,0.08513 -0.07465,0.129544 -0.02237,0.04396 -0.0429,0.08899 -0.06017,0.135191 -0.01791,0.0479 -0.03258,0.09706 -0.04486,0.146703 -0.01346,0.05438 -0.02418,0.109542 -0.03147,0.165085 -0.0077,0.05836 -0.0116,0.117262 -0.01282,0.176107 -0.0013,0.06495 -8.29e-4,0.130197 0.0061,0.194788 0.0073,0.0685 0.02223,0.136076 0.03746,0.203267 0.006,0.02641 0.0131,0.05259 0.02118,0.07843 0.01399,0.04475 0.02954,0.08906 0.04719,0.1325 0.0132,0.03248 0.0275,0.06459 0.04382,0.09562 0.02311,0.04393 0.04868,0.08665 0.07641,0.127822 0.03121,0.04634 0.06469,0.09129 0.101001,0.133758 0.41525,0.485635 1.331793,1.378691 1.331793,1.378691 l 1.331793,1.378692 -9.1e-5,0.121682 c -1.34e-4,0.177318 -0.02771,3.364596 -0.0292,3.365993 -0.0032,0.003 -0.115116,-0.01135 -0.171823,-0.0223 -0.12036,-0.02325 -0.239912,-0.05277 -0.356092,-0.09188 -0.08364,-0.02815 -0.164864,-0.06362 -0.244171,-0.102331 -0.06484,-0.03165 -0.128322,-0.06651 -0.188765,-0.105901 -0.0745,-0.04856 -0.145793,-0.102342 -0.213355,-0.160164 -0.117455,-0.100521 -0.222807,-0.2144 -0.332381,-0.323458 -0.23773,-0.23661 -0.48695,-0.491234 -0.705166,-0.717802 -0.151397,-0.157191 -1.233089,-1.280672 -2.403758,-2.496622 0,0 -1.487437,-1.413627 -2.128491,-2.21082 -0.03211,-0.03994 -0.05892,-0.08397 -0.08529,-0.12791 -0.02507,-0.04177 -0.04784,-0.08496 -0.06918,-0.128759 -0.01925,-0.03952 -0.03756,-0.0796 -0.053,-0.120751 -0.01773,-0.04727 -0.03254,-0.09567 -0.04537,-0.144496 -0.01454,-0.0553 -0.02727,-0.11122 -0.03574,-0.167765 -0.0106,-0.07067 -0.01749,-0.142107 -0.01879,-0.213556 -0.0013,-0.07064 0.003,-0.141454 0.0109,-0.211659 0.0077,-0.0686 0.0198,-0.136803 0.03549,-0.204028 0.01294,-0.05544 0.02877,-0.110346 0.04823,-0.16385 0.02052,-0.05641 0.04437,-0.111781 0.07203,-0.165059 0.02222,-0.04281 0.04818,-0.08368 0.07517,-0.123661 0.02581,-0.03825 0.05292,-0.07578 0.0828,-0.110941 0.154436,-0.181733 0.496829,-0.514838 0.496829,-0.514838 0.273257,-0.28316 1.107816,-1.148648 1.854578,-1.923305 0.746761,-0.774658 1.714367,-1.778331 2.150236,-2.230386 0,0 0.522114,-0.554074 0.79249,-0.821918 0.07246,-0.07178 0.144385,-0.144422 0.222251,-0.210294 0.06215,-0.05258 0.127089,-0.102136 0.194936,-0.147127 0.08111,-0.05379 0.166056,-0.101951 0.252726,-0.146234 0.07597,-0.03882 0.154087,-0.07369 0.233685,-0.104402 0.08762,-0.0338 0.177014,-0.06352 0.267787,-0.08762 0.101835,-0.02704 0.207484,-0.04756 0.309608,-0.0637 0.0985,-0.01557 0.175141,-0.02011 0.263055,-0.02604 0.05336,-0.0036 0.106878,-0.0046 0.160349,-0.0058 0.04804,-0.0011 0.08697,1.36e-4 0.144145,-0.0012 -0.0012,0.01578 -7.3e-5,0.02442 -6e-6,0.03663 1.38e-4,0.02521 0.0013,0.06148 8.41e-4,0.07564 -0.05629,0.0588 -0.07488,0.08121 -0.108518,0.124927 -0.09463,0.122996 -0.133162,0.182092 -0.18361,0.278701 l -3e-6,8e-6 z"
               inkscape:path-effect="#path-effect10" />
            <path
               style="fill:#0d6ba4;stroke-width:0.999859;stroke-dasharray:none"
               d="m 31.355367,24.37007 c 0.0069,-5.311885 0.0062,-5.32852 0.0054,-6.960376 -0.01103,-1.628463 -0.05007,-1.284996 0.02576,-1.902896 0.02517,-0.20508 0.10843,-0.387963 0.189218,-0.571733 0.03813,-0.08672 0.08705,-0.168625 0.138435,-0.248211 0.05982,-0.09264 0.124134,-0.183019 0.197029,-0.265772 0.07408,-0.08409 0.155994,-0.161649 0.242663,-0.232695 0.1088,-0.08919 0.223375,-0.172798 0.3462,-0.241397 0.115517,-0.06452 0.2383,-0.11706 0.364068,-0.158156 0.125279,-0.04094 0.255157,-0.06888 0.385703,-0.08699 0.119438,-0.01658 0.240682,-0.01626 0.361221,-0.01951 0.112194,-0.003 0.224469,0 0.336704,0 h 0.336704 l 7e-6,0.06818 c 8e-6,0.06538 -0.01561,5.573276 -0.0266,8.563 -0.0088,0.170661 -0.05549,0.421317 -0.124732,0.620519 -0.03742,0.107643 -0.07405,0.200564 -0.122305,0.295684 -0.05295,0.104366 -0.11612,0.203549 -0.182546,0.299899 -0.04228,0.06133 -0.08818,0.120308 -0.137091,0.176493 -0.05643,0.06481 -0.116071,0.127119 -0.179881,0.184677 -0.07631,0.06883 -0.156791,0.133504 -0.241777,0.191276 -0.0836,0.05683 -0.170763,0.109374 -0.262454,0.151931 -0.14062,0.06527 -0.287209,0.120108 -0.437783,0.157005 -0.13613,0.03336 -0.276532,0.05145 -0.416574,0.05712 -0.142982,0.0058 -0.422379,0.0027 -0.422379,0.0027 l -0.374907,-0.0051 z m 1.019072,-11.524838 c -0.07958,-0.03016 -0.158143,-0.06416 -0.232332,-0.105858 -0.07625,-0.04285 -0.149413,-0.09198 -0.217069,-0.147409 -0.0597,-0.04891 -0.114776,-0.103799 -0.165212,-0.16222 -0.05012,-0.05806 -0.09439,-0.121226 -0.135532,-0.185963 -0.03593,-0.05654 -0.06998,-0.114728 -0.09678,-0.17612 -0.03414,-0.07821 -0.06305,-0.159469 -0.08071,-0.242962 -0.02636,-0.124682 -0.041,-0.25319 -0.03665,-0.380555 0.0044,-0.127413 0.02745,-0.254751 0.06256,-0.37731 0.02433,-0.08493 0.05913,-0.167328 0.10165,-0.244769 0.05895,-0.107365 0.127209,-0.211423 0.210693,-0.30105 0.09444,-0.101391 0.206217,-0.187025 0.322815,-0.261888 0.06894,-0.04426 0.14396,-0.07921 0.220237,-0.109111 0.07043,-0.02761 0.143406,-0.04979 0.217652,-0.0643 0.101626,-0.01986 0.205593,-0.03191 0.309134,-0.03062 0.105252,0.0013 0.21043,0.01695 0.313373,0.03891 0.06554,0.01398 0.130068,0.03381 0.192244,0.0588 0.08864,0.03563 0.175249,0.07788 0.255841,0.129186 0.07648,0.04869 0.149171,0.104541 0.213837,0.168088 0.08615,0.08466 0.162715,0.179861 0.228863,0.280919 0.0444,0.06784 0.08084,0.141134 0.111352,0.216252 0.03248,0.07996 0.05837,0.163065 0.07556,0.24764 0.01937,0.09531 0.03046,0.192923 0.03053,0.290185 7.4e-5,0.104068 -0.01203,0.208447 -0.03222,0.310536 -0.01253,0.06335 -0.03219,0.125343 -0.05488,0.185802 -0.02823,0.07521 -0.06098,0.149129 -0.100691,0.218961 -0.04011,0.07053 -0.08644,0.137891 -0.138087,0.200475 -0.05129,0.06215 -0.107495,0.120871 -0.169436,0.172404 -0.08389,0.06979 -0.174792,0.13229 -0.271328,0.183166 -0.09732,0.05129 -0.201341,0.09044 -0.306943,0.121263 -0.0562,0.0164 -0.114308,0.02628 -0.172406,0.03348 -0.07701,0.0095 -0.154881,0.01475 -0.232455,0.01272 -0.0718,-0.0019 -0.143629,-0.0099 -0.214252,-0.02299 -0.071,-0.01317 -0.143613,-0.03556 -0.209358,-0.05566 z"
               id="path2"
               sodipodi:nodetypes="ccsaaaaaaaaacscsaaaaaaascccaaaaaaaaaaaaaaaaaaaaaaaaaaaaaaaaaa" />
          </g>
        </g>
      </g>
    </g>
  </g>
</svg>
